HIERARCHY
ROOT hip
{
  OFFSET 0 0 0
  CHANNELS 6 Xposition Yposition Zposition Zrotation Yrotation Xrotation
  JOINT abdomen
  {
    OFFSET 0 20.6881 -0.73152
    CHANNELS 3 Zrotation Xrotation Yrotation
    JOINT chest
    {
      OFFSET 0 11.7043 -0.48768
      CHANNELS 3 Zrotation Xrotation Yrotation
      JOINT neck
      {
        OFFSET 0 22.1894 -2.19456
        CHANNELS 3 Zrotation Xrotation Yrotation
        JOINT head
        {
          OFFSET -0.24384 7.07133 1.2192
          CHANNELS 3 Zrotation Xrotation Yrotation
          JOINT leftEye
          {
            OFFSET 4.14528 8.04674 8.04672
            CHANNELS 3 Zrotation Xrotation Yrotation
            End Site
            {
              OFFSET 1 0 0
            }
          }
          JOINT rightEye
          {
            OFFSET -3.6576 8.04674 8.04672
            CHANNELS 3 Zrotation Xrotation Yrotation
            End Site
            {
              OFFSET 1 0 0
            }
          }
        }
      }
      JOINT rCollar
      {
        OFFSET -2.68224 19.2634 -4.8768
        CHANNELS 3 Zrotation Xrotation Yrotation
        JOINT rShldr
        {
          OFFSET -8.77824 -1.95073 1.46304
          CHANNELS 3 Zrotation Xrotation Yrotation
          JOINT rForeArm
          {
            OFFSET -28.1742 -1.7115 0.48768
            CHANNELS 3 Zrotation Xrotation Yrotation
            JOINT rHand
            {
              OFFSET -22.5879 0.773209 7.07136
              CHANNELS 3 Zrotation Xrotation Yrotation
              JOINT rThumb1
              {
                OFFSET -1.2192 -0.487915 3.41376
                CHANNELS 3 Zrotation Xrotation Yrotation
                JOINT rThumb2
                {
                  OFFSET -3.37035 -0.52449 3.41376
                  CHANNELS 3 Zrotation Xrotation Yrotation
                  End Site
                  {
                    OFFSET -1.78271 -1.18214 1.43049
                  }
                }
              }
              JOINT rIndex1
              {
                OFFSET -7.75947 0.938293 5.60832
                CHANNELS 3 Zrotation Xrotation Yrotation
                JOINT rIndex2
                {
                  OFFSET -2.54057 -0.884171 1.56538
                  CHANNELS 3 Zrotation Xrotation Yrotation
                  End Site
                  {
                    OFFSET -1.62519 -0.234802 1.16502
                  }
                }
              }
              JOINT rMid1
              {
                OFFSET -8.24714 1.18213 3.41376
                CHANNELS 3 Zrotation Xrotation Yrotation
                JOINT rMid2
                {
                  OFFSET -3.10165 -0.590103 1.0647
                  CHANNELS 3 Zrotation Xrotation Yrotation
                  End Site
                  {
                    OFFSET -2.48547 -0.328903 0.83742
                  }
                }
              }
              JOINT rRing1
              {
                OFFSET -8.82822 0.546677 1.51678
                CHANNELS 3 Zrotation Xrotation Yrotation
                JOINT rRing2
                {
                  OFFSET -2.60934 -0.819778 -0.0198488
                  CHANNELS 3 Zrotation Xrotation Yrotation
                  End Site
                  {
                    OFFSET -2.33842 -0.294052 0.168128
                  }
                }
              }
              JOINT rPinky1
              {
                OFFSET -8.27202 -0.0477905 -0.4584
                CHANNELS 3 Zrotation Xrotation Yrotation
                JOINT rPinky2
                {
                  OFFSET -1.82734 -0.647385 -0.700984
                  CHANNELS 3 Zrotation Xrotation Yrotation
                  End Site
                  {
                    OFFSET -1.69225 -0.51767 -0.607171
                  }
                }
              }
            }
          }
        }
      }
      JOINT lCollar
      {
        OFFSET 2.68224 19.2634 -4.8768
        CHANNELS 3 Zrotation Xrotation Yrotation
        JOINT lShldr
        {
          OFFSET 8.77824 -1.95073 1.46304
          CHANNELS 3 Zrotation Xrotation Yrotation
          JOINT lForeArm
          {
            OFFSET 28.1742 -1.7115 0.48768
            CHANNELS 3 Zrotation Xrotation Yrotation
            JOINT lHand
            {
              OFFSET 22.5879 0.773209 7.07136
              CHANNELS 3 Zrotation Xrotation Yrotation
              JOINT lThumb1
              {
                OFFSET 1.2192 -0.487915 3.41376
                CHANNELS 3 Zrotation Xrotation Yrotation
                JOINT lThumb2
                {
                  OFFSET 3.37035 -0.52449 3.41376
                  CHANNELS 3 Zrotation Xrotation Yrotation
                  End Site
                  {
                    OFFSET 1.78271 -1.18214 1.43049
                  }
                }
              }
              JOINT lIndex1
              {
                OFFSET 7.75947 0.938293 5.60832
                CHANNELS 3 Zrotation Xrotation Yrotation
                JOINT lIndex2
                {
                  OFFSET 2.54057 -0.884171 1.56538
                  CHANNELS 3 Zrotation Xrotation Yrotation
                  End Site
                  {
                    OFFSET 1.62519 -0.234802 1.16502
                  }
                }
              }
              JOINT lMid1
              {
                OFFSET 8.24714 1.18213 3.41376
                CHANNELS 3 Zrotation Xrotation Yrotation
                JOINT lMid2
                {
                  OFFSET 3.10165 -0.590103 1.0647
                  CHANNELS 3 Zrotation Xrotation Yrotation
                  End Site
                  {
                    OFFSET 2.48547 -0.328903 0.83742
                  }
                }
              }
              JOINT lRing1
              {
                OFFSET 8.82822 0.546677 1.51678
                CHANNELS 3 Zrotation Xrotation Yrotation
                JOINT lRing2
                {
                  OFFSET 2.60934 -0.819778 -0.0198488
                  CHANNELS 3 Zrotation Xrotation Yrotation
                  End Site
                  {
                    OFFSET 2.33842 -0.294052 0.168128
                  }
                }
              }
              JOINT lPinky1
              {
                OFFSET 8.27202 -0.0477905 -0.4584
                CHANNELS 3 Zrotation Xrotation Yrotation
                JOINT lPinky2
                {
                  OFFSET 1.82734 -0.647385 -0.700984
                  CHANNELS 3 Zrotation Xrotation Yrotation
                  End Site
                  {
                    OFFSET 1.69225 -0.51767 -0.607171
                  }
                }
              }
            }
          }
        }
      }
    }
  }
  JOINT rButtock
  {
    OFFSET -8.77824 4.35084 1.2192
    CHANNELS 3 Zrotation Xrotation Yrotation
    JOINT rThigh
    {
      OFFSET 0 -1.70687 -2.19456
      CHANNELS 3 Zrotation Xrotation Yrotation
      JOINT rShin
      {
        OFFSET 0 -36.8199 0.73152
        CHANNELS 3 Zrotation Xrotation Yrotation
        JOINT rFoot
        {
          OFFSET 0.73152 -45.1104 -5.12064
          CHANNELS 3 Zrotation Xrotation Yrotation
          End Site
          {
            OFFSET -1.1221 -3.69964 12.103
          }
        }
      }
    }
  }
  JOINT lButtock
  {
    OFFSET 8.77824 4.35084 1.2192
    CHANNELS 3 Zrotation Xrotation Yrotation
    JOINT lThigh
    {
      OFFSET 0 -1.70687 -2.19456
      CHANNELS 3 Zrotation Xrotation Yrotation
      JOINT lShin
      {
        OFFSET 0 -36.8199 0.73152
        CHANNELS 3 Zrotation Xrotation Yrotation
        JOINT lFoot
        {
          OFFSET -0.73152 -45.1104 -5.12064
          CHANNELS 3 Zrotation Xrotation Yrotation
          End Site
          {
            OFFSET 1.1221 -3.69964 12.103
          }
        }
      }
    }
  }
}
MOTION
Frames:	9
Frame Time:	0.00833333
0.0 0.0 0.0 0.0 0.0 0.0 0.0 0.0 0.0 0.0 0.0 0.0 0.0 0.0 0.0 0.0 0.0 0.0 0.0 0.0 0.0 0.0 0.0 0.0 0.0 0.0 0.0 0.0 0.0 0.0 0.0 0.0 0.0 0.0 0.0 0.0 0.0 0.0 0.0 0.0 0.0 0.0 0.0 0.0 0.0 0.0 0.0 0.0 0.0 0.0 0.0 0.0 0.0 0.0 0.0 0.0 0.0 0.0 0.0 0.0 0.0 0.0 0.0 0.0 0.0 0.0 0.0 0.0 0.0 0.0 0.0 0.0 0.0 0.0 0.0 0.0 0.0 0.0 0.0 0.0 0.0 0.0 0.0 0.0 0.0 0.0 0.0 0.0 0.0 0.0 0.0 0.0 0.0 0.0 0.0 0.0 0.0 0.0 0.0 0.0 0.0 0.0 0.0 0.0 0.0 0.0 0.0 0.0 0.0 0.0 0.0 0.0 0.0 0.0 0.0 0.0 0.0 0.0 0.0 0.0 0.0 0.0 0.0 0.0 0.0 0.0 0.0 0.0 0.0 0.0 0.0 0.0
9.999999999999999e-05 62.185199999999995 0.059199999999999996 -2.554051 -88.625533 1.76537 -0.172593 3.364448 2.817029 9.5575 2.780781 -60.234571 -7.216857 -4.005357 -125.397321 27.647512 -26.685572 37.030748 53.626223 -3.289205 -6.502617 18.053055 -14.883977 -78.857809 -53.052553 -87.287714 -151.663133 -159.182133 27.550409 168.327356 -3.562003 74.216954 172.067137 -175.356828 51.816514 77.128 6.604053 -15.747749 43.443922 170.679653 10.100471 -89.737981 159.176746 32.358805 -123.377449 -17.50749 35.949208 -82.590854 -47.972836 -1.700677 -113.742946 138.222028 -55.489076 116.892388 92.42775 15.845425 -81.811995 5.281004 -30.757541 -9.379352 30.367012 11.403578 -66.587448 -11.088425 -31.06911 -13.133979 82.695305 -43.19793 -168.574963 169.960024 -40.552758 -171.082634 0.961909 51.521873 -168.922567 -175.624397 22.96018 -110.835045 -13.431301 -25.912338 -13.818745 -163.820976 -63.247589 -103.566981 151.514097 7.029365 -87.692551 82.504087 43.465088 -69.91934 -9.979511 -18.99395 -33.023966 94.577824 77.079228 -60.279414 -94.493275 -11.972359 79.333601 157.619776 -51.836248 -173.267209 46.960819 41.424144 99.055098 156.736199 44.89455 148.393474 17.626258 -47.789202 20.597804 -3.469693 51.815022 -5.012874 -0.91806 -7.410794 -2.48169 68.975174 -22.214904 -99.487239 -2.385045 -50.191681 -2.023921 2.679954 51.91977 -1.847148 5.504382 -1.970842 69.566158 -3.771439 -68.246411 171.983815
0.5655 58.8919 0.0458 10.42211 34.45928 9.13082 -8.919318 12.952579 -93.998868 7.740462 1.120924 96.177979 7.85927 26.749079 80.664377 -40.744883 4.545957 -120.823033 5.584222 -0.689623 -14.069309 -0.081132 0.007297 -10.278788 -129.150352 58.997944 130.407365 163.334101 -17.965136 -178.770991 -92.891113 30.001435 79.877789 30.435813 -51.62794 24.778675 7.137253 -5.881402 -1.452915 -49.950226 42.867808 38.523233 -114.377351 38.937664 103.573323 -174.867055 -5.39271 120.257764 24.406343 -36.633855 12.596057 -174.592723 38.707073 154.110514 -136.521524 -2.223272 -177.574225 -143.956764 -18.186311 -179.865752 174.69363 36.384885 -118.749942 -116.443445 -32.192919 -69.474166 6.026608 29.867107 -9.050646 -71.343141 2.578768 -4.572119 -166.446203 -0.725791 -37.622271 143.605192 39.773738 -124.082939 -4.874555 -6.355008 2.263949 114.378098 -11.342626 -103.02063 -179.081201 -43.935486 -132.820688 2.917129 -5.646868 20.248796 149.415457 -21.774048 -149.866124 -3.219162 38.046008 -13.040019 114.629085 -36.239618 110.437007 65.182392 -50.788133 112.812867 140.14271 -1.520106 125.202785 17.596585 -57.708207 42.873338 98.106 54.892647 39.858731 -169.502367 5.993339 -85.181651 -69.969565 28.878844 12.00095 28.075642 33.935265 53.43302 111.648538 55.541979 44.178186 -95.847011 46.706529 -157.328898 -45.63943 -17.594372 68.215664 152.762733 17.752186 -57.207463
0.1564 54.7802 0.2767 11.298268 28.208183 10.635562 -17.675347 13.313595 -93.015049 10.07293 9.5522 103.858404 19.953268 31.072291 99.376873 -42.758077 38.430443 -136.607204 12.936823 -0.897052 -7.899732 7.64144 -0.919032 -13.696142 -22.194451 65.710464 22.768083 116.227214 -56.132337 150.657348 -10.422668 4.060094 16.752139 -5.978337 22.984072 5.483499 26.442527 -18.657012 1.652112 -13.863162 21.395792 1.061207 -162.954161 -42.529156 123.09226 -33.617868 55.938972 33.951651 -175.579127 -51.310981 131.254444 15.167931 -13.389 16.971779 1.199167 12.048187 19.465216 -139.954208 -42.892573 -168.848312 -142.046186 -4.115249 -125.730267 65.069806 34.923249 -55.305142 153.333182 -4.545596 -154.974784 -93.258172 -29.17102 -129.140979 -27.843717 -12.227589 -118.222285 19.768063 -6.221121 2.500622 140.593602 26.219986 -90.581701 145.072883 21.041828 -61.215849 151.762312 13.862989 -129.900035 170.109805 -53.49571 -155.324754 1.930792 11.518259 -1.33722 168.545607 -13.274681 -146.916552 150.778972 -20.288545 164.92291 37.179171 -55.651536 45.266797 176.513502 72.55596 132.195985 -47.024045 54.90684 32.028609 -6.729161 0.575396 -3.187257 -57.556533 -61.400951 11.437453 72.729003 12.054058 -0.8249 -0.433526 -14.237425 -85.848861 -179.018832 67.877905 -0.486958 -144.494748 65.192767 -22.320524 0.443291 42.733481 -62.272755 20.422992 5.356182 80.105803
-0.5195 54.1442 0.6925 9.146307 27.168408 9.007744 -17.843935 13.915638 57.404707 -2.837275 -14.153379 -48.960466 7.908632 23.642645 82.178309 -41.426224 8.705909 -118.507903 -26.620371 1.613775 -6.813739 -11.227911 1.492963 -15.101149 -0.434571 13.490553 3.476893 84.704635 -44.077193 93.357814 144.5698 -41.651529 98.149288 174.476459 -3.050039 149.955023 60.92515 -44.93591 10.041181 -137.82909 0.388453 94.489817 -158.9162 -11.594131 128.393034 -177.447034 3.908815 137.405534 14.681671 -56.438349 -17.920769 -166.684558 -17.716197 136.703658 -147.081191 2.806546 -179.518014 1.456033 -23.208584 -11.156681 -122.28999 5.260013 -138.538942 17.901159 -37.174794 -3.349616 17.738596 37.612664 -21.48841 83.927326 28.065757 -165.387162 -87.059805 -37.116497 141.862195 34.476773 26.757469 -14.563014 -15.69238 -23.483395 5.422409 -95.625638 -79.698234 -31.839214 143.468799 15.408258 -135.6727 172.172333 -21.555069 -144.272399 163.003583 3.940486 -150.900086 12.351792 10.566611 14.598078 3.664206 -3.260977 6.117078 148.261884 -43.630999 -170.193076 22.098836 -36.705572 28.274627 22.123922 -48.566121 6.218117 -1.085457 -8.789079 -6.959483 -41.279789 -60.404468 -146.016044 -67.955588 -16.628035 154.89897 -101.598267 35.543493 35.0129 56.91873 14.536352 30.129441 -43.816871 5.632895 -105.946649 -59.153705 7.312547 -82.112174 -3.456457 25.584864 -169.90589
-0.8009999999999999 54.531600000000005 0.9414 7.743068 27.238741 7.742848 -10.728019 12.466066 -80.97384 8.882078 3.48217 82.807086 4.791387 25.850022 96.308715 -42.018569 13.347078 -127.517 -22.218324 1.582275 -8.045367 -15.638813 -0.291109 2.119568 -154.725154 -11.469257 158.164658 95.246683 56.107826 -75.141881 8.193945 37.424086 22.359112 -17.452369 51.70582 15.512767 -166.258831 -4.609385 89.377156 -141.108787 -0.018078 63.284645 -96.168124 46.185796 80.838135 177.887572 -46.04403 115.275353 -159.060879 -68.930855 160.323489 -24.786421 56.118674 24.47201 -128.716825 -35.098649 -153.872928 -164.284237 40.601087 -168.772027 -117.892956 15.678927 -123.431767 43.540792 -1.083357 -6.956425 159.877848 -44.001917 -168.719538 59.221637 23.82893 1.312782 13.423336 -21.755982 147.025221 155.930446 10.492909 -141.006321 176.855312 -10.193489 -94.442987 24.725226 -59.28575 37.609305 -2.045742 -0.260323 -0.222692 146.546825 16.577909 -108.981813 157.095285 -78.603159 -165.131875 147.200837 -74.887858 -155.674168 -1.210486 -4.920544 2.628302 100.262006 77.953381 -119.47433 141.425395 51.615702 161.919821 133.596694 16.394435 151.205544 -4.616144 -1.660367 5.374125 -54.309832 -54.666823 -67.378838 -45.095989 63.848443 -60.414821 83.599297 -55.167856 -165.848752 -11.190655 5.061118 -24.966536 29.618167 2.375631 -105.215601 -55.986563 -38.109766 -58.089335 89.1922 31.529357 167.011623
-0.7458 54.862 0.9908 7.381185 27.665983 7.207328 -13.034864 13.360449 31.466168 2.454247 -11.92995 -30.664807 6.799094 28.224018 115.320749 -35.621813 26.649991 -146.237412 -12.543602 -0.980979 8.908105 -17.478514 -3.108969 20.023175 -157.40127 -27.652689 161.517745 -111.713534 -34.748476 -137.375225 -112.366511 -69.045046 -93.896329 0.181899 17.956104 5.790169 -8.061778 1.750621 1.413144 -61.712457 38.969358 67.538923 -153.032955 -14.4411 123.124074 -173.539185 -47.538333 106.26501 175.071566 -68.847563 135.634674 13.669617 -7.649268 5.625462 -135.573196 47.193012 171.911286 -170.675783 28.338269 -175.800097 95.106423 66.801682 -41.043574 -67.875692 -30.791324 -44.506469 29.115375 61.488981 -31.654304 99.895983 -9.360214 -147.428084 -175.333861 -1.843568 75.024161 16.750193 -31.122082 9.5386 176.316048 -18.767493 -94.088283 21.989995 -38.916914 28.721146 160.835773 -32.792432 -112.970324 150.692814 0.450409 -111.681303 157.094304 -26.274131 -151.735119 8.087186 65.837703 0.909798 -10.402258 -8.576206 1.14706 -20.995206 -61.486569 -11.908875 143.279543 7.992053 144.619818 -8.974948 37.336862 -0.413993 142.142059 70.687267 10.561375 172.320698 8.911071 -52.499154 -49.577099 44.33961 -26.5174 -5.231872 -21.869207 97.246127 -146.540445 71.928637 -11.096958 156.922637 64.296516 -15.260268 -46.969254 43.789373 -23.507551 36.729912 -33.499834 116.350244
-0.5206 55.1567 0.6452 6.805184 28.978034 6.877955 -8.70664 11.829759 -40.141493 9.386569 -2.241045 37.286788 8.063135 25.549736 102.931729 -35.193601 19.150606 -136.182237 -9.560805 -1.392439 16.535498 -16.686724 -3.9554 26.498445 11.389855 -44.168503 -1.400708 -130.729782 -9.285607 140.341114 -169.799141 -14.849666 -146.50026 -3.483057 34.219874 2.538919 -3.361739 -1.807256 0.687069 16.897831 -55.309978 -41.954915 -7.894131 -0.752262 -4.300756 153.888084 -46.899201 87.777103 152.830737 -74.438197 118.119258 -147.430215 23.504565 128.160622 5.532009 6.561093 -3.228386 -149.455528 31.007208 159.732614 16.048065 25.378383 -7.346158 -151.429321 8.624388 -154.002046 -2.27218 7.250126 4.004088 96.993173 -16.764229 157.552375 -6.396144 6.39687 139.198214 143.757142 29.260113 -124.775181 -126.457059 -55.806006 -61.275019 -5.595946 -57.845178 29.845582 135.692589 2.718729 -110.077081 172.435433 -22.560643 -117.73897 156.288841 -4.459634 -147.638574 3.874866 -19.449835 9.830096 -16.261598 0.556824 1.453148 -32.553634 -60.706974 -39.224797 6.221433 -5.885872 2.657638 -22.062964 45.033537 -22.597967 -94.819498 32.871176 -38.746431 102.362231 -27.041273 -19.092048 -42.27249 47.34831 -169.138488 21.507581 19.315261 -125.646919 7.453918 5.760331 1.05915 3.438693 -15.666749 11.987132 37.248057 53.874462 -19.485342 78.469895 -8.153153 -6.005564
-0.2577 55.358399999999996 -0.031799999999999995 6.132089 29.862715 5.814693 -9.194101 7.665483 168.354938 -8.096655 1.882706 -173.542813 -12.534799 22.57255 -63.472509 34.572308 -6.883393 30.04411 -6.067023 -0.874714 16.393372 -12.810581 -2.462028 21.672411 12.933634 -50.938231 0.139784 -149.629533 -38.894472 140.277179 3.755469 -24.209442 -70.060006 153.632933 -36.234283 137.703029 -171.555744 -7.16798 87.627408 -162.376042 -10.28243 71.464835 -157.368205 -3.804741 123.984042 7.255086 -36.58028 -23.70017 -157.960437 -4.201721 143.332214 -28.62507 51.582187 34.287128 0.542678 29.130286 1.928968 -143.815272 45.446423 152.831478 -86.096779 -41.684588 -79.414518 27.321582 46.878504 -2.21359 -1.793809 20.313649 2.102622 -76.896901 32.876629 8.61622 9.58989 -14.375825 -103.093908 15.400192 -53.634163 20.613465 -6.027176 0.704436 6.297068 141.354493 -35.977629 -104.014867 163.49424 -39.611924 -120.031695 164.958688 -30.919004 -128.224336 -7.479882 -22.452505 6.635712 1.435981 34.761159 -11.133154 -16.025123 3.082508 3.228704 -77.532006 -65.856844 -82.601648 -10.473115 53.546533 -15.434398 4.512345 -34.01175 3.532315 -91.525292 32.030825 -38.678953 100.126718 -26.669729 12.759724 -10.234676 56.084838 161.046278 -130.56617 5.859978 147.707745 -175.773254 70.612367 -6.202892 -161.26173 55.904348 37.667644 64.863377 25.666855 -137.285335 42.859472 60.6423 47.633143
